<svg width="3134" height="866" viewBox="0 0 3134 866" fill="none" xmlns="http://www.w3.org/2000/svg">
    <path d="M3102.89 244.746C3104.8 260.279 3096.41 277.012 3077.93 294.723C3059.48 312.403 3031.24 330.804 2994.12 349.624C2919.91 387.254 2810.55 426.39 2674.09 464.745C2401.18 541.45 2020.13 614.961 1595.63 667.083C1171.12 719.206 783.604 740.063 500.25 731.659C358.561 727.456 242.984 715.939 161.87 697.381C121.303 688.099 89.4485 677.077 67.2736 664.385C45.0594 651.67 32.868 637.465 30.9607 621.931C29.0534 606.398 37.4462 589.665 55.9245 571.954C74.3702 554.274 102.612 535.873 139.728 517.054C213.944 479.423 323.301 440.287 459.764 401.932C732.669 325.228 1113.72 251.717 1538.23 199.594C1962.73 147.471 2350.25 126.614 2633.6 135.018C2775.29 139.221 2890.87 150.738 2971.98 169.297C3012.55 178.578 3044.4 189.6 3066.58 202.292C3088.79 215.007 3100.98 229.212 3102.89 244.746Z"
          stroke="black" stroke-width="3"/>
    <circle cx="2135" cy="146" r="28" fill="#94B687"/>
    <circle cx="1878" cy="630" r="28" fill="#94B687"/>
    <circle cx="902" cy="721" r="28" fill="#94B687"/>
</svg>
