<svg width="40" height="40" viewBox="0 0 40 40" fill="none" xmlns="http://www.w3.org/2000/svg">
<path d="M27.7145 29L29 27.7145L21.2854 20L29 12.2854L27.7145 11L20 18.7146L12.2854 11L11 12.2854L18.7146 20L11 27.7145L12.2854 29L20 21.2854L27.7145 29Z" fill="black"/>
<path d="M40 20C40 8.95451 31.0454 0 20 0C8.95451 0 0 8.95451 0 20C0 31.0454 8.95451 40 20 40C31.0454 40 40 31.0454 40 20ZM1.81817 20C1.81817 9.95817 9.95817 1.81817 20 1.81817C30.0418 1.81817 38.1818 9.95817 38.1818 20C38.1818 30.0418 30.0418 38.1818 20 38.1818C9.95817 38.1818 1.81817 30.0418 1.81817 20Z" fill="black"/>
</svg>
