<svg width="77" height="77" viewBox="0 0 77 77" fill="none" xmlns="http://www.w3.org/2000/svg">
<path d="M61.2151 9.16297C61.7156 8.66247 61.5616 7.66147 60.6761 7.85397C46.3541 7.85397 32.0321 7.85397 17.7101 7.85397C17.4406 7.85397 17.1326 8.04647 16.9786 8.35447C16.8246 8.70097 16.9401 9.00897 16.9401 9.08597V19.7505C15.7851 20.097 14.9766 21.175 14.9766 22.407V23.562C14.9766 24.409 15.3616 25.2175 16.0546 25.718C15.4386 26.642 15.6696 27.9125 16.5936 28.5285C17.5176 29.1445 18.7881 28.9135 19.4041 27.9895C19.8661 27.2965 19.8661 26.411 19.4041 25.718C20.0586 25.2175 20.4821 24.409 20.4821 23.562V22.407C20.4821 21.175 19.6736 20.097 18.4801 19.7505V10.626L23.9086 16.0545C23.9086 19.789 23.9471 23.5235 23.9471 27.258C23.7161 28.028 23.4851 28.9135 23.3311 29.9145C23.1771 30.877 23.1386 31.801 23.1001 32.571V33.649H21.1366C20.6361 33.6875 20.0586 33.8415 19.5966 34.265C18.3646 35.4585 18.8266 38.115 20.1356 39.655C21.1366 40.81 22.4456 41.118 23.1001 41.2335C23.1771 46.893 27.1041 51.7825 32.6096 53.0915C32.8791 53.1685 33.1486 53.207 33.4566 53.2455V53.515C30.9926 53.515 28.6826 54.131 26.6421 55.209C21.9451 57.673 18.7496 62.601 18.7496 68.299C18.7496 68.7225 19.0961 69.069 19.5196 69.069H59.9831C60.4066 69.069 60.7531 68.7225 60.7531 68.299C60.7531 63.3325 58.1351 58.597 53.9771 55.8635C51.3591 54.1695 48.5101 53.7075 45.4686 53.515C45.4686 53.3995 45.4686 53.284 45.4686 53.1685C45.6226 53.13 45.7766 53.0915 45.8921 53.053C51.3591 51.7055 55.2476 46.816 55.3246 41.195C55.9406 41.0795 57.2496 40.6945 58.1736 39.578C59.7906 37.653 59.3286 34.727 58.5971 34.1495C57.9041 33.6105 57.1726 33.6105 57.1726 33.6105H55.3246V32.5325C55.3631 31.7625 55.3246 30.6845 55.0551 29.491C54.8241 28.49 54.4776 27.6815 54.1696 27.0655C54.1696 23.408 54.1696 19.789 54.1696 16.1315C54.1696 16.17 61.2151 9.16297 61.2151 9.16297ZM52.6681 16.4395V26.2185H25.4486V16.4395H52.6681ZM24.6401 32.571C24.6401 30.954 24.9096 29.337 25.4486 27.797H43.5821C41.3106 31.262 36.1516 35.6125 24.6401 33.957V32.571ZM52.9761 27.797C53.2071 28.49 53.4381 29.337 53.5921 30.2995C53.7076 31.108 53.7846 31.801 53.7846 32.4555C53.1301 32.494 52.2446 32.417 51.2821 32.032C48.5871 30.954 47.5861 28.2975 47.4321 27.7585L52.9761 27.797ZM17.7101 27.2965C17.4406 27.2965 17.2096 27.0655 17.2096 26.796C17.2096 26.5265 17.4406 26.2955 17.7101 26.2955C17.9796 26.2955 18.2106 26.5265 18.2106 26.796C18.2106 27.104 17.9796 27.2965 17.7101 27.2965ZM18.9036 22.3685V23.5235C18.9036 24.178 18.3261 24.717 17.6716 24.717C17.0171 24.717 16.4781 24.178 16.4781 23.5235V22.3685C16.4781 21.714 17.0556 21.175 17.7101 21.175C18.3646 21.175 18.9036 21.714 18.9036 22.3685ZM58.8281 9.35547L53.3226 14.861H24.9096L19.4041 9.35547H58.8281ZM22.9846 39.6935C21.5216 39.347 20.5206 38.038 20.5206 36.5365V35.805C20.5206 35.4585 20.7901 35.189 21.1366 35.189H22.9846V39.6935ZM43.8901 54.2465C43.6206 55.8635 42.1961 58.0195 39.8091 58.212C37.1526 58.4045 35.3046 56.056 35.0351 54.2465C34.9966 53.9385 34.9966 53.669 34.9966 53.4765C37.9611 53.4765 40.9641 53.4765 43.9286 53.438C43.9286 53.6305 43.9286 53.9 43.8901 54.2465ZM59.1746 67.5675H20.2896C20.7131 60.5605 26.4881 55.132 33.4951 55.0935H33.6106C34.3806 58.3275 37.6146 60.291 40.8486 59.521C43.0431 58.982 44.7371 57.288 45.2761 55.0935H45.9691C52.9761 55.132 58.7511 60.5605 59.1746 67.5675ZM45.5456 51.59C45.2376 51.667 44.8911 51.7055 44.5831 51.7825C43.0816 51.8595 41.5416 51.9365 39.8861 51.975C38.3846 51.975 36.9216 51.975 35.4971 51.9365C35.0736 51.9365 34.6886 51.898 34.3036 51.8595C28.7981 51.2435 24.6401 46.585 24.6401 41.041V35.497C26.2571 35.728 27.8741 35.8435 29.4911 35.8435C39.1546 35.8435 43.5051 31.1465 45.3916 27.7585H45.7766C46.7776 30.338 48.9721 33.9955 53.5151 33.9955C53.6306 33.9955 53.7076 33.9955 53.8231 33.9955V34.419C53.8231 36.6135 53.8231 38.8465 53.8231 41.041C53.8231 46.046 50.3966 50.435 45.5456 51.59ZM57.1726 35.189C57.5191 35.189 57.7886 35.4585 57.7886 35.805V36.5365C57.7886 38.038 56.7876 39.3085 55.3246 39.655V35.189H57.1726Z" fill="black"/>
<path d="M34.265 39.2699C34.265 38.0764 33.3025 37.0754 32.0705 37.0754C30.8385 37.0754 29.876 38.0379 29.876 39.2699C29.876 40.5019 30.8385 41.4644 32.0705 41.4644C33.3025 41.4644 34.265 40.5019 34.265 39.2699ZM32.109 39.9244C31.7625 39.9244 31.4545 39.6549 31.4545 39.2699C31.4545 38.9234 31.724 38.6154 32.109 38.6154C32.4555 38.6154 32.7635 38.8849 32.7635 39.2699C32.725 39.6549 32.4555 39.9244 32.109 39.9244Z" fill="black"/>
<path d="M46.0841 37.114C44.8906 37.114 43.8896 38.0765 43.8896 39.3085C43.8896 40.502 44.8521 41.503 46.0841 41.503C47.3161 41.503 48.2786 40.5405 48.2786 39.3085C48.2786 38.0765 47.3161 37.114 46.0841 37.114ZM46.0841 39.9245C45.7376 39.9245 45.4296 39.655 45.4296 39.27C45.4296 38.885 45.6991 38.6155 46.0841 38.6155C46.4691 38.6155 46.7386 38.885 46.7386 39.27C46.7386 39.655 46.4691 39.9245 46.0841 39.9245Z" fill="black"/>
<path d="M44.5058 45.7765C43.0043 47.2395 40.9638 48.0095 38.8463 47.9325C37.0368 47.817 35.3428 47.047 34.0338 45.815C33.7258 45.507 33.2638 45.507 32.9558 45.7765C32.6478 46.0845 32.6478 46.5465 32.9173 46.8545L32.9558 46.893C36.5363 50.1655 42.0033 50.281 45.5453 46.893C45.8533 46.6235 45.8918 46.123 45.6223 45.815C45.3528 45.507 44.8523 45.4685 44.5443 45.738C44.5443 45.7765 44.5058 45.7765 44.5058 45.7765Z" fill="black"/>
</svg>
