<svg width="77" height="77" viewBox="0 0 77 77" fill="none" xmlns="http://www.w3.org/2000/svg">
<path d="M68.2533 8.49426H47.6585L42.5484 18.6047C39.358 17.9909 36.0798 17.9909 32.8895 18.6047L27.7794 8.49426H7.18457L17.2831 28.4631L17.2954 28.4885C14.0944 32.8242 12.3749 38.0756 12.3917 43.465C12.3787 46.7995 13.0243 50.1038 14.2913 53.1883C15.5584 56.2728 17.4221 59.0767 19.7754 61.4392C22.1287 63.8017 24.9253 65.6762 28.0048 66.9553C31.0843 68.2344 34.3861 68.8929 37.7207 68.8929C41.0552 68.8929 44.357 68.2344 47.4365 66.9553C50.516 65.6762 53.3126 63.8017 55.6659 61.4392C58.0192 59.0767 59.8829 56.2728 61.15 53.1883C62.4171 50.1038 63.0626 46.7995 63.0496 43.465C63.0652 38.0755 61.3449 32.8242 58.1436 28.4885L68.2533 8.49426ZM65.8663 9.96188L57.1418 27.2149C56.247 26.1486 55.2666 25.1571 54.2104 24.2504L61.4318 9.96227L65.8663 9.96188ZM59.7871 9.96188L53.0469 23.2979C51.8222 22.365 50.5147 21.5461 49.1407 20.8516L54.6443 9.96188H59.7871ZM48.5605 9.96188H52.9996L47.8075 20.236C46.5834 19.7028 45.3188 19.2682 44.0256 18.9362L48.5605 9.96188ZM26.8765 9.96188L31.413 18.9358C30.1208 19.2668 28.8571 19.7004 27.6338 20.2325L22.4417 9.96188H26.8765ZM20.797 9.96188L26.3006 20.8493C24.9276 21.5452 23.6203 22.3639 22.3948 23.2952L15.6507 9.96188H20.797ZM9.5708 9.96188H14.006L21.2313 24.2454C20.1733 25.1538 19.1914 26.1473 18.2957 27.216L9.5708 9.96188ZM37.7185 67.3269C31.3925 67.3188 25.328 64.8019 20.8553 60.3282C16.3827 55.8545 13.8671 49.7894 13.8605 43.4634C13.8426 38.2376 15.557 33.1531 18.7357 29.0051C21.0715 25.9384 24.1144 23.4822 27.605 21.8461C29.2141 21.0911 30.9034 20.5203 32.6408 20.1447C35.9886 19.4186 39.4531 19.4186 42.8009 20.1447C46.4818 20.9457 49.9203 22.6082 52.834 24.9957C54.2738 26.1776 55.572 27.5219 56.7029 29.0021C59.8829 33.1508 61.5987 38.2362 61.582 43.4634C61.575 49.7902 59.0586 55.8558 54.5849 60.3295C50.1113 64.8033 44.0457 67.3197 37.7189 67.3269H37.7185Z" fill="black"/>
<path d="M54.5094 35.0134C52.7714 31.5636 50.013 28.7328 46.6093 26.9062C43.2055 25.0795 39.3218 24.3457 35.4862 24.8044C30.9215 25.3502 26.7153 27.5508 23.6639 30.9894C20.6126 34.4281 18.9279 38.8661 18.9289 43.4634C18.9177 45.9382 19.3955 48.3909 20.3348 50.6805C21.2741 52.9702 22.6564 55.0517 24.4025 56.8056C26.1485 58.5596 28.2237 59.9513 30.5091 60.901C32.7945 61.8507 35.245 62.3395 37.7198 62.3395C40.1946 62.3395 42.6451 61.8507 44.9305 60.901C47.2158 59.9513 49.2911 58.5596 51.0371 56.8056C52.7831 55.0517 54.1655 52.9702 55.1048 50.6805C56.0441 48.3909 56.5219 45.9382 56.5107 43.4634C56.5187 40.5891 55.8607 37.7521 54.5884 35.1747L54.5094 35.0134ZM37.7181 60.7888C33.1253 60.7831 28.7222 58.9558 25.475 55.7079C22.2277 52.46 20.4013 48.0566 20.3965 43.4638C20.3945 39.2256 21.9469 35.1338 24.7597 31.9635C27.5725 28.7932 31.4504 26.7646 35.6587 26.262C37.027 26.0978 38.4099 26.0978 39.7782 26.262C41.5455 26.4697 43.2698 26.9503 44.8898 27.6865C48.4326 29.3032 51.3306 32.0617 53.12 35.5205L53.197 35.6772C54.4167 38.0908 55.0485 40.7587 55.0408 43.463C55.0357 48.056 53.2091 52.4594 49.9616 55.7075C46.7142 58.9555 42.311 60.7829 37.7181 60.7888Z" fill="black"/>
<path d="M41.7401 29.8552H36.6138L36.3936 30.1309L36.3801 30.1471C36.2361 30.3203 34.4166 32.4644 32.0396 32.8975L31.4375 33.0076V37.8867H34.7177V52.0751H32.3546V57.0759H44.0058V52.0751H41.742L41.7401 29.8552ZM42.5363 53.5427V55.6083H33.8222V53.5427H36.1853V36.421H32.9051V34.2019C35.0804 33.5909 36.712 31.9754 37.3022 31.3228H40.2713V53.5427H42.5363Z" fill="black"/>
</svg>
