<svg width="77" height="77" viewBox="0 0 77 77" fill="none" xmlns="http://www.w3.org/2000/svg">
<path d="M60.638 20.9825C60.638 20.482 60.5995 20.02 60.561 19.5195C59.8295 12.859 54.2085 7.81548 47.5095 7.85398H19.597V33.3025C14.5535 37.191 13.668 44.429 17.5565 49.434C17.7105 49.6265 17.826 49.7805 17.98 49.973V68.1835C17.98 68.5685 18.288 68.838 18.6345 68.838C18.827 68.838 18.981 68.761 19.135 68.6455L26.9505 60.3295L34.612 68.607C34.8815 68.8765 35.305 68.8765 35.5745 68.6455C35.7285 68.53 35.8055 68.3375 35.8055 68.145V59.3285H60.6765L60.638 20.9825ZM59.1365 18.942H46.8165C46.8165 15.708 46.8165 12.4355 46.8165 9.20148H47.5095C53.246 9.20148 58.1355 13.2825 59.1365 18.942ZM26.6425 32.2245C32.2635 32.186 36.8065 36.8445 36.8065 42.3885C36.8065 47.971 32.1865 52.591 26.6425 52.5525C21.214 52.514 16.671 48.048 16.5555 42.504C16.4785 36.9215 21.06 32.2245 26.6425 32.2245ZM34.458 66.451L27.451 58.905C27.3355 58.751 27.143 58.674 26.9505 58.674C26.758 58.674 26.604 58.751 26.45 58.8665L19.289 66.451V51.2435C20.059 51.8595 22.754 53.8615 26.7195 53.823C30.9545 53.7845 33.7265 51.4745 34.4195 50.8585C34.458 56.056 34.458 61.2535 34.458 66.451ZM59.2905 58.0195H35.767V49.5495C35.767 49.511 35.767 49.4725 35.767 49.434C37.23 47.5475 38.0385 45.276 38.154 42.9275H52.5915V41.58H38.154C38 39.116 37.0375 36.806 35.4205 34.9195H52.5915V33.572H34.073C30.377 30.4535 25.141 29.9915 20.9445 32.3785V9.20148H45.469V20.2895H59.2905C59.2905 20.5205 59.329 20.7515 59.329 21.021L59.2905 58.0195Z" fill="black"/>
<path d="M52.591 25.872H30.415V27.2195H52.591V25.872Z" fill="black"/>
<path d="M41.503 17.017H30.415V18.3645H41.503V17.017Z" fill="black"/>
</svg>
