<svg width="77" height="77" viewBox="0 0 77 77" fill="none" xmlns="http://www.w3.org/2000/svg">
<path d="M23.5009 7.9949C23.3961 7.98892 23.2912 8.00441 23.1927 8.04042C23.0941 8.07643 23.004 8.1322 22.9278 8.20431C22.8516 8.27641 22.7909 8.36333 22.7495 8.45974C22.7081 8.55614 22.6868 8.65998 22.687 8.7649V10.2664H17.9692H17.9619H17.9542H13.6995H13.6922H13.6849H11.1651V8.7649C11.1652 8.66019 11.144 8.55655 11.1027 8.46031C11.0615 8.36407 11.001 8.27726 10.925 8.20519C10.8491 8.13311 10.7592 8.07729 10.6609 8.04114C10.5627 8.00498 10.4581 7.98925 10.3535 7.9949C9.34588 8.05059 8.39781 8.48987 7.7039 9.22258C7.00999 9.9553 6.62289 10.9258 6.62207 11.935V65.2575C6.62258 66.305 7.0389 67.3095 7.77957 68.0502C8.52023 68.7909 9.52466 69.2074 10.5722 69.208H23.2795C24.3267 69.2064 25.3307 68.7897 26.0712 68.0492C26.8117 67.3087 27.2284 66.3048 27.23 65.2575V11.935C27.2285 10.9263 26.8416 9.95639 26.1483 9.22375C25.455 8.49111 24.5079 8.05121 23.5009 7.99413V7.9949ZM12.9222 11.8064V20.4131C12.9222 20.6173 13.0033 20.8131 13.1477 20.9576C13.2921 21.102 13.488 21.1831 13.6922 21.1831C13.8964 21.1831 14.0923 21.102 14.2367 20.9576C14.3811 20.8131 14.4622 20.6173 14.4622 20.4131V11.8052H17.1919V28.386C17.1919 28.5903 17.273 28.7861 17.4174 28.9305C17.5618 29.0749 17.7576 29.156 17.9619 29.156C18.1661 29.156 18.3619 29.0749 18.5063 28.9305C18.6507 28.7861 18.7319 28.5903 18.7319 28.386V11.8052H22.687V64.4105H11.1651V11.8052L12.9222 11.8064ZM25.69 65.2575C25.6886 65.8964 25.4343 66.5087 24.9825 66.9605C24.5307 67.4123 23.9184 67.6667 23.2795 67.668H10.571C9.93214 67.6671 9.31971 67.4128 8.8681 66.9609C8.41649 66.509 8.16258 65.8964 8.16207 65.2575V11.935C8.16285 11.4634 8.30184 11.0024 8.56186 10.6089C8.82188 10.2155 9.19152 9.90685 9.62507 9.72124V65.1805C9.62507 65.3847 9.70619 65.5806 9.8506 65.725C9.995 65.8694 10.1909 65.9505 10.3951 65.9505H23.4581C23.6623 65.9505 23.8582 65.8694 24.0026 65.725C24.147 65.5806 24.2281 65.3847 24.2281 65.1805V9.7224C24.6609 9.90863 25.0298 10.2173 25.2895 10.6104C25.5492 11.0034 25.6884 11.4639 25.69 11.935V65.2575Z" fill="black"/>
<path d="M13.3061 62.2864H21.6633C21.8067 62.2864 21.9472 62.2464 22.069 62.1708C22.1909 62.0953 22.2892 61.9872 22.3529 61.8588C22.4167 61.7304 22.4433 61.5867 22.4298 61.444C22.4164 61.3013 22.3633 61.1652 22.2766 61.051L21.3676 59.8513L22.2374 58.8826C22.3368 58.772 22.4021 58.6349 22.4253 58.4879C22.4485 58.3409 22.4286 58.1904 22.368 58.0545C22.3075 57.9186 22.2088 57.8031 22.084 57.7221C21.9593 57.6411 21.8137 57.5979 21.6649 57.5979H13.3061C13.1019 57.5979 12.9061 57.679 12.7617 57.8234C12.6173 57.9678 12.5361 58.1637 12.5361 58.3679V61.5164C12.5361 61.7207 12.6173 61.9165 12.7617 62.0609C12.9061 62.2053 13.1019 62.2864 13.3061 62.2864V62.2864ZM14.0761 59.1379H19.9366L19.7953 59.2958C19.676 59.4292 19.6069 59.5999 19.5999 59.7787C19.5929 59.9576 19.6484 60.1332 19.7568 60.2756L20.1145 60.7464H14.0761V59.1379Z" fill="black"/>
<path d="M45.7471 7.9949C45.6424 7.98892 45.5375 8.00441 45.439 8.04042C45.3404 8.07643 45.2503 8.1322 45.1741 8.20431C45.0978 8.27641 45.0372 8.36333 44.9958 8.45974C44.9543 8.55614 44.9331 8.65998 44.9332 8.7649V10.2664H40.2158H40.2085H40.2008H35.9462H35.9385H35.9312H33.4102V8.7649C33.4103 8.66022 33.3891 8.55661 33.3479 8.4604C33.3066 8.36419 33.2462 8.2774 33.1703 8.20533C33.0944 8.13327 33.0046 8.07744 32.9063 8.04126C32.8081 8.00508 32.7035 7.9893 32.599 7.9949C31.5914 8.05067 30.6433 8.48997 29.9494 9.22266C29.2554 9.95534 28.8682 10.9258 28.8672 11.935V65.2575C28.8678 66.305 29.2842 67.3094 30.0248 68.0501C30.7654 68.7908 31.7698 69.2073 32.8173 69.208H45.5261C46.5733 69.2063 47.5772 68.7896 48.3176 68.0491C49.0581 67.3086 49.4747 66.3047 49.4762 65.2575V11.935C49.4748 10.9263 49.0878 9.95639 48.3946 9.22375C47.7013 8.49111 46.7542 8.05121 45.7471 7.99413V7.9949ZM35.1685 11.8064V20.4131C35.1685 20.6173 35.2496 20.8131 35.394 20.9576C35.5384 21.102 35.7343 21.1831 35.9385 21.1831C36.1427 21.1831 36.3386 21.102 36.483 20.9576C36.6274 20.8131 36.7085 20.6173 36.7085 20.4131V11.8052H39.4385V28.386C39.4385 28.5903 39.5196 28.7861 39.664 28.9305C39.8084 29.0749 40.0043 29.156 40.2085 29.156C40.4127 29.156 40.6086 29.0749 40.753 28.9305C40.8974 28.7861 40.9785 28.5903 40.9785 28.386V11.8052H44.9332V64.4105H33.4102V11.8052L35.1685 11.8064ZM47.9362 65.2575C47.9348 65.8963 47.6804 66.5085 47.2288 66.9603C46.7771 67.412 46.1649 67.6664 45.5261 67.668H32.8173C32.1783 67.6672 31.5657 67.4129 31.1139 66.961C30.662 66.5091 30.4079 65.8965 30.4072 65.2575V11.935C30.4082 11.4634 30.5473 11.0025 30.8073 10.6091C31.0673 10.2157 31.4368 9.90705 31.8702 9.72124V65.1805C31.8702 65.3847 31.9513 65.5806 32.0957 65.725C32.2401 65.8694 32.436 65.9505 32.6402 65.9505H45.7032C45.9075 65.9505 46.1033 65.8694 46.2477 65.725C46.3921 65.5806 46.4732 65.3847 46.4732 65.1805V9.7224C46.9062 9.90846 47.2754 10.217 47.5353 10.6101C47.7952 11.0032 47.9346 11.4637 47.9362 11.935V65.2575Z" fill="black"/>
<path d="M35.5522 62.2864H43.9094C44.0528 62.2864 44.1933 62.2464 44.3151 62.1708C44.437 62.0953 44.5353 61.9872 44.599 61.8588C44.6628 61.7304 44.6894 61.5867 44.6759 61.444C44.6624 61.3013 44.6094 61.1652 44.5227 61.051L43.6126 59.8513L44.4823 58.8826C44.5818 58.772 44.6471 58.6348 44.6702 58.4878C44.6934 58.3408 44.6735 58.1902 44.6129 58.0543C44.5523 57.9184 44.4536 57.803 44.3287 57.7219C44.2039 57.6409 44.0582 57.5979 43.9094 57.5979H35.5522C35.348 57.5979 35.1522 57.679 35.0078 57.8234C34.8634 57.9678 34.7822 58.1637 34.7822 58.3679V61.5164C34.7822 61.7207 34.8634 61.9165 35.0078 62.0609C35.1522 62.2053 35.348 62.2864 35.5522 62.2864ZM36.3222 59.1379H42.1831L42.0418 59.2958C41.9222 59.4289 41.8528 59.5996 41.8454 59.7784C41.838 59.9572 41.8932 60.133 42.0014 60.2756L42.3586 60.7464H36.3222V59.1379Z" fill="black"/>
<path d="M70.6949 9.14874C70.0092 8.4589 69.0923 8.04743 68.1212 7.99374C68.0164 7.98776 67.9116 8.00325 67.813 8.03926C67.7145 8.07527 67.6243 8.13104 67.5481 8.20315C67.4719 8.27525 67.4112 8.36217 67.3698 8.45858C67.3284 8.55498 67.3071 8.65883 67.3073 8.76374V10.2652H62.5895H62.5822H62.5745H58.3198H58.3125H58.3052H55.7862V8.76374C55.7863 8.65907 55.7651 8.55545 55.7239 8.45924C55.6826 8.36303 55.6222 8.27624 55.5463 8.20417C55.4703 8.13211 55.3805 8.07628 55.2823 8.0401C55.1841 8.00392 55.0795 7.98814 54.975 7.99374C53.9671 8.04934 53.0188 8.48875 52.3247 9.22172C51.6307 9.95469 51.2437 10.9256 51.2432 11.935V65.2575C51.2438 66.305 51.6601 67.3094 52.4008 68.0501C53.1414 68.7908 54.1458 69.2073 55.1933 69.208H67.9021C68.9493 69.2063 69.9531 68.7896 70.6936 68.0491C71.434 67.3086 71.8507 66.3047 71.8522 65.2575V11.935C71.8538 11.417 71.7523 10.9039 71.5537 10.4255C71.355 9.94716 71.063 9.51314 70.6949 9.14874V9.14874ZM57.5425 11.8052V20.4131C57.5425 20.6173 57.6237 20.8131 57.7681 20.9575C57.9125 21.1019 58.1083 21.1831 58.3125 21.1831C58.5168 21.1831 58.7126 21.1019 58.857 20.9575C59.0014 20.8131 59.0825 20.6173 59.0825 20.4131V11.8052H61.8122V28.386C61.8122 28.5903 61.8933 28.7861 62.0377 28.9305C62.1821 29.0749 62.378 29.156 62.5822 29.156C62.7864 29.156 62.9823 29.0749 63.1267 28.9305C63.2711 28.7861 63.3522 28.5903 63.3522 28.386V11.8052H67.3073V64.4105H55.7862V11.8052H57.5425ZM70.3103 65.2575C70.3089 65.8963 70.0545 66.5085 69.6028 66.9602C69.1512 67.412 68.539 67.6664 67.9002 67.668H55.1913C54.5523 67.6674 53.9395 67.4132 53.4877 66.9613C53.0358 66.5093 52.7817 65.8966 52.7812 65.2575V11.935C52.7823 11.4634 52.9214 11.0025 53.1813 10.6091C53.4413 10.2157 53.8108 9.90705 54.2442 9.72124V65.1805C54.2442 65.3847 54.3254 65.5806 54.4698 65.725C54.6142 65.8694 54.81 65.9505 55.0142 65.9505H68.0773C68.2815 65.9505 68.4774 65.8694 68.6218 65.725C68.7662 65.5806 68.8473 65.3847 68.8473 65.1805V9.72239C69.2804 9.9085 69.6496 10.2172 69.9096 10.6104C70.1695 11.0037 70.3088 11.4644 70.3103 11.9358V65.2575Z" fill="black"/>
<path d="M57.9262 62.2864H66.2838C66.4272 62.2864 66.5677 62.2464 66.6895 62.1708C66.8114 62.0953 66.9097 61.9872 66.9734 61.8588C67.0372 61.7304 67.0638 61.5867 67.0503 61.444C67.0369 61.3013 66.9838 61.1652 66.8971 61.051L65.987 59.8513L66.8563 58.8826C66.9558 58.772 67.0211 58.6349 67.0443 58.4879C67.0674 58.3409 67.0476 58.1904 66.987 58.0545C66.9264 57.9186 66.8278 57.8031 66.703 57.7221C66.5782 57.6411 66.4326 57.5979 66.2838 57.5979H57.9262C57.722 57.5979 57.5262 57.679 57.3818 57.8234C57.2374 57.9678 57.1562 58.1637 57.1562 58.3679V61.5164C57.1562 61.7207 57.2374 61.9165 57.3818 62.0609C57.5262 62.2053 57.722 62.2864 57.9262 62.2864ZM58.6962 59.1379H64.5575L64.4158 59.2958C64.2965 59.4292 64.2275 59.5999 64.2204 59.7787C64.2134 59.9576 64.2689 60.1332 64.3773 60.2756L64.735 60.7464H58.6982L58.6962 59.1379Z" fill="black"/>
</svg>
