<svg width="77" height="77" viewBox="0 0 77 77" fill="none" xmlns="http://www.w3.org/2000/svg">
<path d="M58.8938 11.6713V7.93677H13.6182V64.7543H19.7281V68.8287H63.3101V11.6713H58.8938ZM43.6366 63.274L43.6174 63.2154V52.5313H57.2106C56.6744 55.5395 55.0979 58.2634 52.7567 60.2269C50.4156 62.1905 47.4587 63.2686 44.4032 63.2728L43.6366 63.274ZM15.0989 9.41671H57.4131V50.2652C57.4131 50.5293 57.4031 50.7907 57.3873 51.051H42.1367V63.2744H15.0989V9.41671ZM61.8282 67.348H21.2088V64.7543H44.4039C48.2455 64.75 51.9285 63.2221 54.6449 60.5057C57.3614 57.7894 58.8894 54.1064 58.8938 50.2648V13.1516H61.8282V67.348Z" fill="black"/>
<path d="M50.0061 26.0849H25.5625V27.5656H50.0061V26.0849Z" fill="black"/>
<path d="M50.0061 34.9118H25.5625V36.3925H50.0061V34.9118Z" fill="black"/>
</svg>
