<svg width="77" height="77" viewBox="0 0 77 77" fill="none" xmlns="http://www.w3.org/2000/svg">
<path d="M46.835 29.6584H29.9027C29.7008 29.6585 29.5072 29.7388 29.3645 29.8816C29.2218 30.0244 29.1416 30.2181 29.1416 30.42V32.601C29.1416 35.0482 30.1138 37.3952 31.8442 39.1257C33.5747 40.8561 35.9217 41.8283 38.3689 41.8283C40.8161 41.8283 43.1631 40.8561 44.8936 39.1257C46.624 37.3952 47.5962 35.0482 47.5962 32.601V30.42C47.5962 30.2181 47.516 30.0244 47.3733 29.8816C47.2306 29.7388 47.037 29.6585 46.835 29.6584ZM46.0735 32.601C46.0735 34.6444 45.2618 36.6041 43.8169 38.049C42.372 39.4939 40.4123 40.3056 38.3689 40.3056C36.3255 40.3056 34.3658 39.4939 32.9209 38.049C31.476 36.6041 30.6643 34.6444 30.6643 32.601V31.1811H46.0735V32.601Z" fill="black"/>
<path d="M65.2622 53.284H62.3312V52.8158C62.3387 50.7703 61.6633 48.7807 60.412 47.1625V9.90719C60.4119 9.70529 60.3316 9.51169 60.1888 9.36896C60.046 9.22623 59.8523 9.14605 59.6504 9.14605H50.7465C50.5447 9.14605 50.3511 9.22624 50.2083 9.36898C50.0656 9.51172 49.9854 9.70532 49.9854 9.90719V14.677C48.2872 13.6405 46.419 12.9129 44.4672 12.5279C44.239 11.0744 43.4991 9.7502 42.3809 8.79401C41.2627 7.83782 39.8397 7.31253 38.3684 7.31281C36.8971 7.31308 35.4743 7.83892 34.3564 8.79553C33.2385 9.75215 32.4992 11.0766 32.2715 12.5302C30.2837 12.92 28.382 13.6633 26.6567 14.7247V9.90719C26.6566 9.70529 26.5763 9.51169 26.4335 9.36896C26.2907 9.22623 26.0971 9.14605 25.8952 9.14605H16.9928C16.7909 9.14605 16.5973 9.22623 16.4545 9.36896C16.3117 9.51169 16.2314 9.70529 16.2313 9.90719V47.2476C15.0206 48.8505 14.3685 50.8059 14.3748 52.8147V53.2809H11.2332C11.0313 53.2809 10.8377 53.3611 10.6949 53.5038C10.5521 53.6465 10.4718 53.8401 10.4717 54.0421V62.7142C10.4776 63.3643 10.6323 64.0045 10.924 64.5857C11.2156 65.1668 11.6364 65.6734 12.1541 66.0668C12.8026 66.5723 13.5651 66.9112 14.3748 67.0539V68.8249C14.3748 68.9249 14.3945 69.0239 14.4328 69.1163C14.4711 69.2086 14.5272 69.2926 14.5979 69.3632C14.6686 69.4339 14.7526 69.49 14.8449 69.5282C14.9373 69.5664 15.0364 69.5861 15.1363 69.586H61.57C61.7719 69.586 61.9656 69.5059 62.1084 69.3631C62.2512 69.2204 62.3315 69.0268 62.3316 68.8249V67.0774C63.364 66.9051 64.3018 66.3719 64.978 65.5728C65.6541 64.7737 66.0247 63.7606 66.0237 62.7138V54.044C66.0234 53.8422 65.943 53.6489 65.8002 53.5064C65.6574 53.3639 65.4639 53.2839 65.2622 53.284ZM51.5081 10.6687H58.8897V45.6702C58.651 45.4892 58.4022 45.3221 58.1443 45.1697V29.198C58.1403 26.8767 57.6628 24.5807 56.741 22.4503C55.8192 20.3199 54.4724 18.4 52.7832 16.8079C52.3743 16.4229 51.9473 16.0633 51.5069 15.7238L51.5081 10.6687ZM56.2767 44.3905C56.0672 44.3345 55.8552 44.2883 55.6407 44.2519C55.5995 44.245 55.5579 44.2392 55.5167 44.2326C55.2934 44.1984 55.0685 44.1707 54.841 44.1556L54.7863 44.1533C54.6635 44.1499 54.5399 44.1464 54.4137 44.1464H22.2912C22.1757 44.1464 22.0667 44.1495 21.9531 44.1533H21.9008C21.6698 44.1656 21.4434 44.1918 21.2178 44.2249C21.1731 44.2315 21.1285 44.2376 21.0838 44.245C20.8674 44.2806 20.6538 44.3261 20.4428 44.3812C20.4008 44.3924 20.3596 44.4047 20.3181 44.4167C20.2411 44.4386 20.161 44.4582 20.0832 44.4829V29.198C20.0747 26.8075 20.6241 24.4479 21.6877 22.307C22.7512 20.166 24.2996 18.3027 26.2097 16.8653C26.2459 16.8376 26.284 16.8133 26.3206 16.7883L26.3256 16.7848C28.3187 15.2993 30.6417 14.318 33.0962 13.9247C33.9106 13.7901 34.7348 13.7234 35.5602 13.7252H41.1485C41.3587 13.7252 41.5688 13.7296 41.7787 13.7383C45.4946 13.8886 49.0318 15.373 51.7421 17.9194C53.2898 19.3613 54.5224 21.1078 55.3623 23.0492C56.2022 24.9905 56.6312 27.0847 56.6224 29.1999V44.4894C56.5473 44.4656 56.4715 44.4463 56.396 44.4251C56.3556 44.412 56.3163 44.4001 56.2767 44.3905ZM38.3722 8.83574C39.397 8.83563 40.3931 9.17397 41.2057 9.79818C42.0184 10.4224 42.6022 11.2975 42.8664 12.2876C42.8221 12.283 42.7774 12.2815 42.7331 12.2776C42.5499 12.2603 42.3666 12.2468 42.183 12.2357C42.1002 12.2307 42.0178 12.2245 41.935 12.2207C41.6725 12.2087 41.4099 12.2006 41.1473 12.2006H35.5591C35.2969 12.2006 35.0366 12.2083 34.7779 12.2199C34.6986 12.2234 34.62 12.2295 34.5411 12.2341C34.3594 12.2449 34.179 12.2577 33.9998 12.2726C33.9613 12.2765 33.9186 12.2776 33.8785 12.2819C34.1437 11.2929 34.7279 10.4191 35.5404 9.79601C36.3529 9.17292 37.3483 8.83538 38.3722 8.83574ZM25.1356 10.6687V15.7761C23.0825 17.3581 21.4215 19.3918 20.2815 21.7195C19.1415 24.0471 18.5532 26.6062 18.5621 29.198V45.1717C18.2814 45.3368 18.0113 45.5193 17.7536 45.7184V10.6687H25.1356ZM13.0955 64.8702C12.7596 64.6187 12.4857 64.2936 12.2949 63.9199C12.104 63.5462 12.0012 63.1337 11.9944 62.7142V54.8036H14.3748V65.497C13.9096 65.3788 13.4739 65.1654 13.0955 64.8702ZM60.8089 68.0657H15.8975V52.8147C15.8975 50.0107 17.3767 47.4535 19.6705 46.2978C20.395 45.9267 21.1905 45.7145 22.0036 45.6756C22.1006 45.6722 22.1961 45.6695 22.2927 45.6695H54.4137C54.5249 45.6695 54.6331 45.6725 54.7475 45.6756C55.5458 45.7241 56.3257 45.9362 57.0386 46.2989C59.3282 47.4539 60.8074 50.0099 60.8074 52.8139L60.8089 68.0657ZM64.501 62.7161C64.5012 63.3539 64.2914 63.9741 63.9039 64.4807C63.5164 64.9874 62.973 65.3523 62.3574 65.5193V54.8055H64.501V62.7161Z" fill="black"/>
</svg>
