<svg width="3545" height="1534" viewBox="0 0 3545 1534" fill="none" xmlns="http://www.w3.org/2000/svg">
<path d="M3421.05 1412.28C3404.48 1463.14 3344.87 1497.74 3250.1 1516.27C3155.47 1534.77 3026.39 1537.12 2871.96 1524.04C2563.13 1497.89 2153.24 1410.07 1715.52 1266.74C1277.8 1123.42 895.217 951.765 630.523 790.125C498.165 709.298 395.356 631.019 329.864 560.09C264.274 489.054 236.528 425.852 253.097 374.996C269.665 324.14 329.275 289.542 424.045 271.013C518.673 252.511 647.751 250.159 802.181 263.236C1111.02 289.388 1520.91 377.213 1958.63 520.536C2396.35 663.859 2778.93 835.514 3043.62 997.154C3175.98 1077.98 3278.79 1156.26 3344.28 1227.19C3409.87 1298.23 3437.61 1361.43 3421.05 1412.28Z" stroke="black" stroke-width="3"/>
<circle cx="808.175" cy="262" r="28" fill="#94B687"/>
<circle cx="961.175" cy="973" r="28" fill="#94B687"/>
<circle cx="2185.17" cy="594" r="28" fill="#94B687"/>
</svg>
