<svg width="2116" height="585" viewBox="0 0 2116 585" fill="none" xmlns="http://www.w3.org/2000/svg">
<path d="M2095.15 165.444C2096.44 175.932 2090.77 187.23 2078.29 199.189C2065.84 211.126 2046.77 223.55 2021.71 236.257C1971.6 261.665 1897.76 288.089 1805.62 313.987C1621.36 365.777 1364.07 415.412 1077.45 450.605C790.827 485.798 529.177 499.88 337.857 494.206C242.189 491.368 164.153 483.592 109.384 471.061C81.9942 464.795 60.4859 457.352 45.5135 448.783C30.5146 440.198 22.283 430.606 20.9952 420.118C19.7074 409.63 25.3742 398.332 37.8507 386.374C50.3051 374.436 69.3741 362.012 94.4347 349.305C144.545 323.897 218.382 297.473 310.522 271.576C494.785 219.785 752.07 170.151 1038.69 134.958C1325.32 99.7648 1586.97 85.682 1778.29 91.3566C1873.96 94.1941 1951.99 101.971 2006.76 114.501C2034.15 120.768 2055.66 128.21 2070.63 136.78C2085.63 145.365 2093.86 154.956 2095.15 165.444Z" stroke="black" stroke-width="2.02559"/>
<circle cx="1441.63" cy="98.7717" r="18.9055" fill="#94B687"/>
<circle cx="1268.11" cy="425.567" r="18.9055" fill="#94B687"/>
<circle cx="609.117" cy="487.009" r="18.9055" fill="#94B687"/>
</svg>
