<svg width="178" height="183" viewBox="0 0 178 183" fill="none" xmlns="http://www.w3.org/2000/svg">
<path d="M89 3.76937L105.557 22.4523L106.646 23.6809L108.206 23.1702L131.634 15.5003L136.901 40.26L137.234 41.8274L138.798 42.1789L162.887 47.5954L155.386 71.8148L154.923 73.3094L156.065 74.379L174.343 91.5L156.065 108.621L154.923 109.691L155.386 111.185L162.887 135.405L138.798 140.821L137.234 141.173L136.901 142.74L131.634 167.5L108.206 159.83L106.646 159.319L105.557 160.548L89 179.231L72.4431 160.548L71.3543 159.319L69.7943 159.83L46.3664 167.5L41.0993 142.74L40.7659 141.173L39.2024 140.821L15.1125 135.405L22.6142 111.185L23.0771 109.691L21.9351 108.621L3.65697 91.5L21.9351 74.379L23.0771 73.3094L22.6142 71.8148L15.1125 47.5954L39.2024 42.1789L40.7659 41.8274L41.0993 40.26L46.3664 15.5003L69.7943 23.1702L71.3543 23.6809L72.4431 22.4523L89 3.76937Z" fill="white" stroke="#D14582" stroke-width="5"/>
<path d="M49.2662 73.1608L47.7565 77.3087L37.3868 73.5344L38.8965 69.3866L49.2662 73.1608ZM71.1512 66.1405L61.4049 92.9181L56.1192 90.9942L63.6476 70.31L56.5625 70.0175L58.0789 65.8513L70.5822 65.9334L71.1512 66.1405ZM79.5071 85.7265L75.6532 83.1806L82.1064 70.1903L97.1195 75.6546L95.563 79.9309L84.8997 76.0498L82.0813 81.7374C82.5119 81.6586 83.1304 81.6343 83.9369 81.6646C84.7479 81.6826 85.6 81.8542 86.4932 82.1793C87.7901 82.6513 88.8668 83.2718 89.7232 84.0408C90.5795 84.8097 91.2161 85.7066 91.633 86.7312C92.0621 87.7604 92.2575 88.8985 92.2194 90.1455C92.1812 91.3925 91.906 92.7196 91.3939 94.1267C90.9619 95.3136 90.3664 96.3785 89.6074 97.3217C88.8529 98.2526 87.9488 99.0043 86.8952 99.5769C85.846 100.137 84.6717 100.451 83.3724 100.519C82.073 100.586 80.6525 100.339 79.1108 99.7782C77.9607 99.3596 76.9096 98.783 75.9575 98.0485C75.0177 97.3185 74.2421 96.4611 73.6305 95.4764C73.0312 94.4962 72.6483 93.4354 72.4817 92.2939C72.3319 91.1447 72.4696 89.9478 72.8949 88.7031L78.144 90.6136C77.9413 91.3989 77.8988 92.1248 78.0165 92.7912C78.151 93.4498 78.4339 94.0239 78.8654 94.5135C79.2969 95.0031 79.8736 95.3793 80.5955 95.642C81.2684 95.8869 81.8903 95.9678 82.461 95.8845C83.0317 95.8012 83.5462 95.5867 84.0047 95.2409C84.4676 94.8828 84.8776 94.4224 85.2349 93.8596C85.6088 93.289 85.9272 92.6428 86.1899 91.9209C86.4527 91.199 86.6053 90.5132 86.6478 89.8635C86.6902 89.2139 86.612 88.6103 86.413 88.053C86.214 87.4956 85.8816 87.0004 85.4156 86.5675C84.9618 86.1391 84.374 85.7935 83.6521 85.5308C82.6733 85.1745 81.859 85.0513 81.2093 85.1613C80.5718 85.2757 80.0044 85.4641 79.5071 85.7265Z" fill="#D14582"/>
<path d="M98.5783 109.899L132.892 83.3757L135.904 86.973L101.591 113.497L98.5783 109.899ZM114.054 72.2682C110.014 70.7975 104.191 71.4291 101.86 77.8331L101.056 80.0414C99.6097 84.0163 100.311 89.7733 106.821 92.1427C111.535 93.8585 116.925 92.3193 119.015 86.5778L119.819 84.3695C121.828 78.8488 119.218 74.1474 114.054 72.2682ZM114.076 84.7803C113.032 87.651 110.898 88.6249 108.428 87.7261C106.408 86.9908 104.87 84.9305 105.995 81.8389L106.799 79.6306C107.924 76.539 110.507 75.7286 112.527 76.4639C115.67 77.6078 115.523 80.8054 114.88 82.572L114.076 84.7803ZM120.428 124.604C124.468 126.075 130.291 125.443 132.622 119.039L133.426 116.831C134.873 112.856 134.171 107.099 127.661 104.73C122.947 103.014 117.557 104.553 115.467 110.295L114.663 112.503C112.654 118.024 115.265 122.725 120.428 124.604ZM120.406 112.092C121.451 109.221 123.585 108.248 126.054 109.146C128.074 109.882 129.612 111.942 128.487 115.034L127.683 117.242C126.558 120.333 123.975 121.144 121.955 120.409C118.812 119.265 118.959 116.067 119.602 114.3L120.406 112.092Z" fill="#D14582"/>
</svg>
