<svg width="49" height="45" viewBox="0 0 49 45" fill="none" xmlns="http://www.w3.org/2000/svg">
<path d="M47.9031 0.682401C47.5157 0.34764 47.044 0.125337 46.5393 0.0395977C46.0345 -0.0461411 45.5158 0.00795715 45.0396 0.196026L1.78403 17.1894C1.21858 17.4115 0.740257 17.8108 0.420646 18.3274C0.101035 18.8441 -0.0426808 19.4503 0.0110052 20.0555C0.0646912 20.6606 0.312892 21.2321 0.718466 21.6844C1.12404 22.1367 1.66518 22.4455 2.26091 22.5646L14.0017 24.913V39.4051C13.9959 39.9626 14.1585 40.509 14.4683 40.9726C14.778 41.4362 15.2206 41.7954 15.7379 42.0033C16.0845 42.1485 16.4564 42.2237 16.8321 42.2247C17.1993 42.2235 17.5626 42.1495 17.9009 42.0068C18.2392 41.8641 18.5459 41.6557 18.803 41.3936L25.5052 34.6914L35.3943 43.3938C35.9039 43.8464 36.5616 44.0967 37.2431 44.0974C37.5394 44.0971 37.8338 44.0503 38.1156 43.9589C38.5804 43.8115 38.9984 43.5448 39.328 43.1854C39.6575 42.826 39.887 42.3865 39.9937 41.9107L48.8094 3.44203C48.9245 2.94313 48.9009 2.42226 48.7412 1.93582C48.5814 1.44938 48.2916 1.01593 47.9031 0.682401ZM1.87867 19.8897C1.85535 19.6872 1.90102 19.4827 2.00828 19.3094C2.11554 19.136 2.27813 19.0039 2.46977 18.9344L42.1202 3.35728L14.7218 23.1449L2.62861 20.7263C2.42772 20.6915 2.24442 20.59 2.10834 20.4382C1.97226 20.2864 1.89134 20.0932 1.87867 19.8897ZM17.4771 40.0679C17.346 40.199 17.1789 40.2883 16.9971 40.3245C16.8153 40.3607 16.6268 40.3421 16.4555 40.2712C16.2842 40.2002 16.1378 40.0801 16.0347 39.9259C15.9317 39.7717 15.8767 39.5905 15.8767 39.4051V26.2182L24.0949 33.4503L17.4771 40.0679ZM46.9818 3.02317L38.1661 41.4918C38.1298 41.6501 38.053 41.7962 37.9432 41.9159C37.8335 42.0356 37.6945 42.1248 37.5399 42.1746C37.3854 42.2244 37.2205 42.2333 37.0615 42.2002C36.9025 42.1672 36.7548 42.0935 36.6329 41.9862L16.4405 24.2167L46.8303 2.26867C46.9102 2.37516 46.9653 2.49819 46.9915 2.62875C47.0178 2.75931 47.0144 2.89407 46.9818 3.02317Z" fill="black"/>
</svg>
