<svg width="1475" height="1597" viewBox="0 0 1475 1597" fill="none" xmlns="http://www.w3.org/2000/svg">
<path d="M1453.88 1195.55C1459.18 1305.04 1384.25 1360.35 1257.95 1360.62C1131.74 1360.88 954.629 1306.14 756.534 1196.24C558.439 1086.35 376.999 942.182 243.801 798.01C110.512 653.74 25.9489 509.95 20.6515 400.46C15.3542 290.97 90.2842 235.66 216.58 235.396C342.791 235.133 519.904 289.878 717.999 399.772C916.094 509.666 1097.53 653.831 1230.73 798.003C1364.02 942.273 1448.58 1086.06 1453.88 1195.55Z" stroke="black" stroke-width="3"/>
<circle cx="541.793" cy="1056.29" r="14.5" fill="#94B687"/>
<circle cx="382.793" cy="934.291" r="14.5" fill="#94B687"/>
<circle cx="893.793" cy="508.291" r="14.5" fill="#94B687"/>
</svg>
