<svg width="50" height="50" viewBox="0 0 50 50" fill="none" xmlns="http://www.w3.org/2000/svg">
<path d="M26.5625 0C13.5937 0 3.125 10.5729 3.125 23.5937C3.125 27.9167 4.27083 32.0833 6.45833 35.7292L0 50L14.9479 44.1667C18.4896 46.1979 22.4479 47.2396 26.5625 47.2396C39.5312 47.2396 50 36.6667 50 23.6458C50 10.625 39.4792 0 26.5625 0ZM26.5625 45.1562C22.8646 45.1562 19.2188 44.2188 15.9896 42.3438L15.1042 41.8229L4.01042 46.1979L8.80208 35.625L8.22917 34.6875C6.25 31.3542 5.20833 27.5 5.20833 23.5937C5.15625 11.7708 14.6875 2.08333 26.5625 2.08333C38.4375 2.08333 47.9167 11.7708 47.9167 23.5937C47.9167 35.4167 38.3854 45.1562 26.5625 45.1562ZM34.7396 26.9792C33.2292 26.25 31.0417 24.8438 29.375 25.4688C28.3333 25.8854 27.8125 26.8229 27.1354 27.6562C25.8854 27.0312 24.375 26.0937 23.5937 25.1562C23.3333 24.8437 22.6562 24.0625 22.2396 23.4896C22.4479 23.2812 22.6562 23.0729 22.8646 22.7083C23.8542 21.1979 23.8542 20.4167 23.1771 18.8021C22.9167 18.1771 22.6562 17.5 22.3958 16.875C21.6146 15.0521 21.1458 13.2812 18.6979 13.2292C17.9688 13.2292 17.2917 13.1771 16.6146 13.4375C14.7917 14.0625 13.3333 16.1458 12.8125 17.9688C12.2396 20.1042 12.5 22.0833 13.3854 24.0625C14.3229 26.1979 16.875 29.5312 18.5417 31.1458C19.0625 31.6146 19.5833 32.0312 20.1042 32.5C20.6771 33.0208 21.3021 33.3854 21.9271 33.8021C24.375 35.4167 29.0625 37.1875 31.9271 36.6146C33.75 36.25 35.8854 34.9479 36.7708 33.2812C37.2396 32.3958 37.5521 30.8333 37.4479 29.7917C37.2917 28.0729 36.0417 27.6562 34.7396 26.9792ZM34.9479 32.3437C34.4792 33.2812 32.9688 34.3229 31.5625 34.5833C29.2187 35.0521 24.9479 33.3333 23.0729 32.0833C22.5 31.6667 22.0312 31.4062 21.4583 30.9375C20.8854 30.4688 20.4688 30.1042 20 29.6354C18.5417 28.2292 16.0938 25 15.3125 23.2292C14.6875 21.7708 14.3229 20.2604 14.8437 18.5417C15.2083 17.2917 16.25 15.7812 17.2917 15.4688C17.6562 15.3125 18.2292 15.3646 18.6979 15.3646C19.8438 15.3646 19.8958 16.3021 20.5208 17.7083C20.7812 18.3854 21.0417 19.0104 21.3021 19.6875C21.7188 20.625 21.7708 20.7292 21.1458 21.6146C20 23.3333 18.6979 22.5521 22.0312 26.5104C23.125 27.8646 25.3125 29.1667 27.0312 29.8958C27.9688 30.3125 28.2812 29.6354 28.6979 29.1146C30.5208 26.9271 29.5312 26.7188 33.8542 28.8542C34.7917 29.3229 35.3646 29.4271 35.4687 30.0521C35.4687 30.6771 35.2083 31.875 34.9479 32.3437Z" fill="#D14582"/>
</svg>
